<svg viewBox="0 0 367 367" xmlns="http://www.w3.org/2000/svg">
  <!-- Mahonia M — square-centered from the 315x367 master (Desktop M.svg).
       Monochrome like the site chrome: black mark, white on dark tab strips. -->
  <style>
    path { fill: #000000; }
    @media (prefers-color-scheme: dark) {
      path { fill: #ffffff; }
    }
  </style>
  <path transform="translate(26 0)" d="M215.25 367C231 304.086 225.75 209.714 199.5 209.714C183.75 209.714 178.5 246.414 194.25 288.357C173.25 272.629 141.75 272.629 120.75 288.357C136.5 246.414 131.25 209.714 115.5 209.714C89.25 209.714 84 304.086 99.75 367C78.75 346.029 26.25 346.029 5.25 367C21 330.3 47.25 288.357 0 241.171C63 193.986 26.25 89.1286 10.5 52.4286C52.5 52.4286 84 26.2143 99.75 0C110.25 83.8857 136.5 157.286 157.5 157.286C178.5 157.286 204.75 83.8857 215.25 0C231 26.2143 262.5 52.4286 304.5 52.4286C283.5 99.6143 267.75 141.557 315 188.743C262.5 235.929 288.75 309.329 309.75 367C288.75 346.029 236.25 346.029 215.25 367Z"/>
</svg>
